<?xml version="1.0" encoding="utf-8" standalone="no"?>
<!DOCTYPE svg PUBLIC "-//W3C//DTD SVG 1.1//EN"
  "http://www.w3.org/Graphics/SVG/1.1/DTD/svg11.dtd">
<!-- Created with matplotlib (http://matplotlib.org/) -->
<svg height="310pt" version="1.1" viewBox="0 0 410 310" width="410pt" xmlns="http://www.w3.org/2000/svg" xmlns:xlink="http://www.w3.org/1999/xlink">
 <defs>
  <style type="text/css">
*{stroke-linecap:butt;stroke-linejoin:round;}
  </style>
 </defs>
 <g id="figure_1">
  <g id="patch_1">
   <path d="M 0 310.289566 
L 410.568358 310.289566 
L 410.568358 0 
L 0 0 
z
" style="fill:#ffffff;"/>
  </g>
  <g id="axes_1">
   <g id="patch_2">
    <path d="M 39.053119 276.771249 
L 396.173119 276.771249 
L 396.173119 10.659249 
L 39.053119 10.659249 
z
" style="fill:#ffffff;"/>
   </g>
   <g id="matplotlib.axis_1">
    <g id="xtick_1">
     <g id="line2d_1">
      <defs>
       <path d="M 0 0 
L 0 -3.5 
" id="me53741a198" style="stroke:#000000;stroke-width:0.8;"/>
      </defs>
      <g>
       <use style="stroke:#000000;stroke-width:0.8;" x="39.053119" xlink:href="#me53741a198" y="276.771249"/>
      </g>
     </g>
     <g id="text_1">
      <!-- $0,0$ -->
      <defs>
       <path d="M 42 31.640625 
C 42 37.75 41.90625 48.125 37.703125 56.109375 
C 34 63.109375 28.09375 65.59375 22.90625 65.59375 
C 18.09375 65.59375 12 63.40625 8.203125 56.203125 
C 4.203125 48.71875 3.796875 39.4375 3.796875 31.640625 
C 3.796875 25.953125 3.90625 17.28125 7 9.671875 
C 11.296875 -0.609375 19 -2 22.90625 -2 
C 27.5 -2 34.5 -0.109375 38.59375 9.375 
C 41.59375 16.28125 42 24.359375 42 31.640625 
z
M 22.90625 -0.40625 
C 16.5 -0.40625 12.703125 5.078125 11.296875 12.6875 
C 10.203125 18.5625 10.203125 27.15625 10.203125 32.75 
C 10.203125 40.4375 10.203125 46.828125 11.5 52.921875 
C 13.40625 61.390625 19 64 22.90625 64 
C 27 64 32.296875 61.296875 34.203125 53.125 
C 35.5 47.4375 35.59375 40.734375 35.59375 32.75 
C 35.59375 26.25 35.59375 18.265625 34.40625 12.375 
C 32.296875 1.484375 26.40625 -0.40625 22.90625 -0.40625 
z
" id="CMR17-48"/>
       <path d="M 19.5 -0.484375 
C 19.5 5.359375 17.59375 9.671875 13.5 9.671875 
C 10.296875 9.671875 8.703125 7.078125 8.703125 4.890625 
C 8.703125 2.6875 10.203125 0 13.59375 0 
C 14.90625 0 16 0.40625 16.90625 1.296875 
C 17.09375 1.5 17.203125 1.5 17.296875 1.5 
C 17.5 1.5 17.5 0.078125 17.5 -0.421875 
C 17.5 -3.75 16.90625 -10.296875 11.09375 -16.875 
C 10 -18.078125 10 -18.28125 10 -18.484375 
C 10 -19 10.5 -19.5 11 -19.5 
C 11.796875 -19.5 19.5 -12.046875 19.5 -0.484375 
z
" id="CMMI12-59"/>
      </defs>
      <g transform="translate(31.857879 287.189748)scale(0.1 -0.1)">
       <use transform="scale(0.996264)" xlink:href="#CMR17-48"/>
       <use transform="translate(45.690477 0)scale(0.996264)" xlink:href="#CMMI12-59"/>
       <use transform="translate(89.392059 0)scale(0.996264)" xlink:href="#CMR17-48"/>
      </g>
     </g>
    </g>
    <g id="xtick_2">
     <g id="line2d_2">
      <g>
       <use style="stroke:#000000;stroke-width:0.8;" x="110.477119" xlink:href="#me53741a198" y="276.771249"/>
      </g>
     </g>
     <g id="text_2">
      <!-- $0,2$ -->
      <defs>
       <path d="M 41.703125 15.453125 
L 39.90625 15.453125 
C 38.90625 8.375 38.09375 7.171875 37.703125 6.5625 
C 37.203125 5.765625 30 5.765625 28.59375 5.765625 
L 9.40625 5.765625 
C 13 9.671875 20 16.75 28.5 24.953125 
C 34.59375 30.734375 41.703125 37.53125 41.703125 47.421875 
C 41.703125 59.21875 32.296875 66 21.796875 66 
C 10.796875 66 4.09375 56.3125 4.09375 47.34375 
C 4.09375 43.4375 7 42.9375 8.203125 42.9375 
C 9.203125 42.9375 12.203125 43.546875 12.203125 47.03125 
C 12.203125 50.109375 9.59375 51 8.203125 51 
C 7.59375 51 7 50.90625 6.59375 50.703125 
C 8.5 59.21875 14.296875 63.40625 20.40625 63.40625 
C 29.09375 63.40625 34.796875 56.515625 34.796875 47.421875 
C 34.796875 38.734375 29.703125 31.25 24 24.75 
L 4.09375 2.28125 
L 4.09375 0 
L 39.296875 0 
z
" id="CMR17-50"/>
      </defs>
      <g transform="translate(103.281879 287.189748)scale(0.1 -0.1)">
       <use transform="scale(0.996264)" xlink:href="#CMR17-48"/>
       <use transform="translate(45.690477 0)scale(0.996264)" xlink:href="#CMMI12-59"/>
       <use transform="translate(89.392059 0)scale(0.996264)" xlink:href="#CMR17-50"/>
      </g>
     </g>
    </g>
    <g id="xtick_3">
     <g id="line2d_3">
      <g>
       <use style="stroke:#000000;stroke-width:0.8;" x="181.901119" xlink:href="#me53741a198" y="276.771249"/>
      </g>
     </g>
     <g id="text_3">
      <!-- $0,4$ -->
      <defs>
       <path d="M 33.59375 64.40625 
C 33.59375 66.5 33.5 66.5 31.703125 66.5 
L 2 19.59375 
L 2 17 
L 27.796875 17 
L 27.796875 7.140625 
C 27.796875 3.5 27.59375 2.5 20.59375 2.5 
L 18.703125 2.5 
L 18.703125 0 
C 21.90625 0 27.296875 0 30.703125 0 
C 34.09375 0 39.5 0 42.703125 0 
L 42.703125 2.5 
L 40.796875 2.5 
C 33.796875 2.5 33.59375 3.5 33.59375 7.140625 
L 33.59375 17 
L 43.796875 17 
L 43.796875 19.59375 
L 33.59375 19.59375 
z
M 28.09375 57.859375 
L 28.09375 19.59375 
L 4 19.59375 
z
" id="CMR17-52"/>
      </defs>
      <g transform="translate(174.705879 287.189748)scale(0.1 -0.1)">
       <use transform="scale(0.996264)" xlink:href="#CMR17-48"/>
       <use transform="translate(45.690477 0)scale(0.996264)" xlink:href="#CMMI12-59"/>
       <use transform="translate(89.392059 0)scale(0.996264)" xlink:href="#CMR17-52"/>
      </g>
     </g>
    </g>
    <g id="xtick_4">
     <g id="line2d_4">
      <g>
       <use style="stroke:#000000;stroke-width:0.8;" x="253.325119" xlink:href="#me53741a198" y="276.771249"/>
      </g>
     </g>
     <g id="text_4">
      <!-- $0,6$ -->
      <defs>
       <path d="M 10.59375 34 
C 10.59375 57.65625 21.796875 63 28.296875 63 
C 30.40625 63 35.5 62.640625 37.5 59 
C 35.90625 59 32.90625 59 32.90625 55.515625 
C 32.90625 52.828125 35.09375 51.921875 36.5 51.921875 
C 37.40625 51.921875 40.09375 52.3125 40.09375 55.625 
C 40.09375 61.78125 35.09375 65.296875 28.203125 65.296875 
C 16.296875 65.296875 3.796875 52.96875 3.796875 31 
C 3.796875 3.953125 15.09375 -2 23.09375 -2 
C 32.796875 -2 42 6.671875 42 20.046875 
C 42 32.515625 33.90625 41.59375 23.703125 41.59375 
C 17.59375 41.59375 13.09375 37.609375 10.59375 30.625 
z
M 23.09375 0.390625 
C 10.796875 0.390625 10.796875 18.75 10.796875 22.4375 
C 10.796875 29.625 14.203125 40 23.5 40 
C 25.203125 40 30.09375 40 33.40625 33.125 
C 35.203125 29.21875 35.203125 25.140625 35.203125 20.140625 
C 35.203125 14.75 35.203125 10.78125 33.09375 6.78125 
C 30.90625 2.671875 27.703125 0.390625 23.09375 0.390625 
z
" id="CMR17-54"/>
      </defs>
      <g transform="translate(246.129879 287.189748)scale(0.1 -0.1)">
       <use transform="scale(0.996264)" xlink:href="#CMR17-48"/>
       <use transform="translate(45.690477 0)scale(0.996264)" xlink:href="#CMMI12-59"/>
       <use transform="translate(89.392059 0)scale(0.996264)" xlink:href="#CMR17-54"/>
      </g>
     </g>
    </g>
    <g id="xtick_5">
     <g id="line2d_5">
      <g>
       <use style="stroke:#000000;stroke-width:0.8;" x="324.749119" xlink:href="#me53741a198" y="276.771249"/>
      </g>
     </g>
     <g id="text_5">
      <!-- $0,8$ -->
      <defs>
       <path d="M 27.203125 35.375 
C 33.5 38.546875 39.90625 43.328125 39.90625 50.984375 
C 39.90625 60.015625 31.09375 65.296875 23 65.296875 
C 13.90625 65.296875 5.90625 58.734375 5.90625 49.6875 
C 5.90625 47.203125 6.5 42.921875 10.40625 39.140625 
C 11.40625 38.15625 15.59375 35.171875 18.296875 33.28125 
C 13.796875 30.984375 3.296875 25.53125 3.296875 14.59375 
C 3.296875 4.359375 13.09375 -2 22.796875 -2 
C 33.5 -2 42.5 5.65625 42.5 15.78125 
C 42.5 24.84375 36.40625 29.015625 32.40625 31.703125 
z
M 14.09375 44.09375 
C 13.296875 44.59375 9.296875 47.671875 9.296875 52.359375 
C 9.296875 58.421875 15.59375 63 22.796875 63 
C 30.703125 63 36.5 57.4375 36.5 50.96875 
C 36.5 41.703125 26.09375 36.421875 25.59375 36.421875 
C 25.5 36.421875 25.40625 36.421875 24.59375 37.03125 
z
M 32.5 23.734375 
C 34 22.640625 38.796875 19.375 38.796875 13.296875 
C 38.796875 5.953125 31.40625 0.390625 23 0.390625 
C 13.90625 0.390625 7 6.84375 7 14.6875 
C 7 22.546875 13.09375 29.09375 20 32.1875 
z
" id="CMR17-56"/>
      </defs>
      <g transform="translate(317.553879 287.189748)scale(0.1 -0.1)">
       <use transform="scale(0.996264)" xlink:href="#CMR17-48"/>
       <use transform="translate(45.690477 0)scale(0.996264)" xlink:href="#CMMI12-59"/>
       <use transform="translate(89.392059 0)scale(0.996264)" xlink:href="#CMR17-56"/>
      </g>
     </g>
    </g>
    <g id="xtick_6">
     <g id="line2d_6">
      <g>
       <use style="stroke:#000000;stroke-width:0.8;" x="396.173119" xlink:href="#me53741a198" y="276.771249"/>
      </g>
     </g>
     <g id="text_6">
      <!-- $1,0$ -->
      <defs>
       <path d="M 26.59375 63.40625 
C 26.59375 65.5 26.5 65.5 25.09375 65.5 
C 21.203125 61.1875 15.296875 59.796875 9.703125 59.796875 
C 9.40625 59.796875 8.90625 59.796875 8.796875 59.5 
C 8.703125 59.296875 8.703125 59.09375 8.703125 57 
C 11.796875 57 17 57.59375 21 59.984375 
L 21 7.203125 
C 21 3.6875 20.796875 2.5 12.203125 2.5 
L 9.203125 2.5 
L 9.203125 0 
C 14 0 19 0 23.796875 0 
C 28.59375 0 33.59375 0 38.40625 0 
L 38.40625 2.5 
L 35.40625 2.5 
C 26.796875 2.5 26.59375 3.59375 26.59375 7.15625 
z
" id="CMR17-49"/>
      </defs>
      <g transform="translate(388.977879 287.189748)scale(0.1 -0.1)">
       <use transform="scale(0.996264)" xlink:href="#CMR17-49"/>
       <use transform="translate(45.690477 0)scale(0.996264)" xlink:href="#CMMI12-59"/>
       <use transform="translate(89.392059 0)scale(0.996264)" xlink:href="#CMR17-48"/>
      </g>
     </g>
    </g>
    <g id="text_7">
     <!-- \textit{Größe} / Einheit -->
     <defs>
      <path d="M 69.5 65.078125 
C 64.703125 68.796875 57.796875 70 51.90625 70 
C 30.203125 70 12.703125 46.421875 12.703125 25.953125 
C 12.703125 11.78125 21.203125 -1 36.5 -1 
C 43.796875 -1 50.703125 0.796875 57.296875 3.859375 
L 62.703125 29 
L 42.796875 29 
L 41.5 22.828125 
L 53.796875 22.828125 
L 50.40625 7.359375 
C 46.296875 6.265625 42.203125 5.46875 38 5.46875 
C 26.5 5.46875 21.203125 16.171875 21.203125 26.359375 
C 21.203125 44.328125 35.09375 63.515625 50.203125 63.515625 
C 57 63.515625 61.59375 61.921875 66.40625 57.09375 
z
" id="CMSSI17-71"/>
      <path d="M 18.59375 17.5 
C 20.09375 24.203125 20.703125 27.40625 25.296875 31.796875 
C 27 33.40625 31.5 37 38.5 37 
L 39.90625 43.578125 
C 30.5 43.578125 25 38.015625 22.09375 35.203125 
L 23.796875 43.171875 
L 16.703125 43.171875 
L 7.5 0 
L 14.90625 0 
z
" id="CMSSI17-114"/>
      <path d="M 32.40625 65.0625 
L 24.296875 65.0625 
L 22.59375 57 
L 30.703125 57 
z
M 50.59375 65.0625 
L 42.5 65.0625 
L 40.703125 57 
L 48.796875 57 
z
" id="CMSSI17-127"/>
      <path d="M 49.296875 26.296875 
C 49.296875 37 42.203125 44 32.796875 44 
C 19.5 44 6.703125 30.203125 6.703125 16.203125 
C 6.703125 6.296875 13.5 -1 23.296875 -1 
C 36.40625 -1 49.296875 11.90625 49.296875 26.296875 
z
M 24.59375 5.265625 
C 18.90625 5.265625 14.40625 9.1875 14.40625 16.890625 
C 14.40625 27.515625 21.40625 37.921875 31.5 37.921875 
C 37.5 37.921875 41.90625 33.90625 41.90625 26.8125 
C 41.90625 17.5 35.40625 5.265625 24.59375 5.265625 
z
" id="CMSSI17-111"/>
      <path d="M 39.40625 39.5 
C 39.5 39.59375 40.796875 40.5 40.90625 40.5 
C 51.5 47.703125 51.796875 55.90625 51.796875 57.796875 
C 51.796875 65.109375 46.09375 70 38.5 70 
C 29.5 70 20.90625 63.109375 19.09375 54.59375 
L 7.5 -0.203125 
L 14.90625 -0.203125 
L 26.5 54.125 
C 28.59375 63.9375 36.09375 63.9375 37.203125 63.9375 
C 41.703125 63.9375 44.296875 61.109375 44.296875 57.078125 
C 44.296875 52.0625 39.90625 43 29.203125 43 
L 28 36.71875 
C 35.59375 36.71875 39.203125 30.46875 39.203125 22.90625 
C 39.203125 12.53125 33.703125 5.078125 26.90625 5.078125 
C 26.40625 5.078125 23.90625 5.078125 21.203125 6.28125 
L 17.796875 0.5 
C 20.796875 -0.703125 23.703125 -1 25.703125 -1 
C 35 -1 46.703125 7.703125 46.703125 23.203125 
C 46.703125 31 43.59375 36.40625 39.40625 39.5 
z
" id="CMSSI17-25"/>
      <path d="M 43.796875 21.515625 
C 44.40625 24.140625 44.703125 26.859375 44.703125 29.578125 
C 44.703125 41.484375 37.09375 44 31.59375 44 
C 19.203125 44 7.09375 30.390625 7.09375 16.40625 
C 7.09375 5.5 14.40625 -1 23.40625 -1 
C 27.5 -1 33.09375 0 39.5 3.875 
L 40.203125 10.234375 
C 33.5 5.5625 27.296875 5.078125 24.90625 5.078125 
C 18.203125 5.078125 14.296875 10.3125 14.296875 17.25 
C 14.296875 21.515625 14.59375 21.515625 16.59375 21.515625 
z
M 16.703125 27 
C 19.90625 33.734375 25.5 37.921875 30.203125 37.921875 
C 38.40625 37.921875 38.40625 29.4375 38.40625 27 
z
" id="CMSSI17-101"/>
      <path d="M 41.203125 71.015625 
C 41.703125 72.296875 41.703125 72.5 41.703125 72.703125 
C 41.703125 73.890625 40.796875 74.5 40 74.5 
C 38.796875 74.5 38.40625 73.703125 38 72.5 
L 5.703125 -21.515625 
C 5.203125 -22.8125 5.203125 -23.015625 5.203125 -23.21875 
C 5.203125 -24.40625 6.09375 -25 6.90625 -25 
C 8.09375 -25 8.5 -24.203125 8.90625 -23.015625 
z
" id="CMSS17-47"/>
      <path d="M 30.59375 6.765625 
C 22.59375 6.765625 19 6.765625 17.203125 6.765625 
L 17.203125 32.921875 
L 48.203125 32.921875 
L 48.203125 39 
L 17.203125 39 
L 17.203125 62.640625 
L 30.09375 62.640625 
C 31.296875 62.640625 32.5 62.640625 33.703125 62.640625 
L 50.796875 62.640625 
L 50.796875 69 
L 8.796875 69 
L 8.796875 0 
L 52.09375 0 
L 52.09375 6.765625 
z
" id="CMSS17-69"/>
      <path d="M 15.296875 65.359375 
L 6.90625 65.359375 
L 6.90625 57 
L 15.296875 57 
z
M 14.796875 42.796875 
L 7.40625 42.796875 
L 7.40625 0 
L 14.796875 0 
z
" id="CMSS17-105"/>
      <path d="M 40.90625 29.328125 
C 40.90625 35.671875 39.40625 44 28.09375 44 
C 21.703125 44 17.5 40.71875 14.703125 37.328125 
L 14.703125 43.09375 
L 7.40625 43.09375 
L 7.40625 0 
L 15 0 
L 15 24.359375 
C 15 30.6875 17.40625 37.9375 24.203125 37.9375 
C 33 37.9375 33.296875 32 33.296875 28.578125 
L 33.296875 0 
L 40.90625 0 
z
" id="CMSS17-110"/>
      <path d="M 40.90625 29.546875 
C 40.90625 35.8125 39.40625 44.0625 28.09375 44.0625 
C 21.796875 44.0625 17.703125 40.984375 14.796875 37.609375 
L 14.796875 69.5 
L 7.40625 69.5 
L 7.40625 0.5 
L 15 0.5 
L 15 24.578125 
C 15 30.828125 17.40625 38 24.203125 38 
C 33 38 33.296875 32.125 33.296875 28.734375 
L 33.296875 0.5 
L 40.90625 0.5 
z
" id="CMSS17-104"/>
      <path d="M 39.09375 21.515625 
C 39.09375 24.84375 38.90625 31.296875 35.703125 36.640625 
C 32.203125 42.390625 26.5 44 22.203125 44 
C 11.796875 44 3 34.1875 3 21.484375 
C 3 9.09375 12.09375 -1 23.59375 -1 
C 28.09375 -1 33.59375 0.296875 38.59375 3.875 
C 38.59375 4.28125 38.40625 6.46875 38.296875 6.5625 
C 38.296875 6.765625 38 9.84375 38 10.25 
C 33.203125 6.359375 27.703125 5.078125 23.703125 5.078125 
C 17.296875 5.078125 10.40625 10.421875 10.09375 21.515625 
z
M 10.90625 27 
C 12.203125 32.5625 16.59375 37.828125 22.203125 37.828125 
C 23.703125 37.828125 30.703125 37.828125 32.5 27 
z
" id="CMSS17-101"/>
      <path d="M 16.703125 37 
L 29.703125 37 
L 29.703125 42.765625 
L 16.703125 42.765625 
L 16.703125 55 
L 9.59375 55 
L 9.59375 42.765625 
L 1.703125 42.765625 
L 1.703125 37 
L 9.40625 37 
L 9.40625 11.703125 
C 9.40625 6 10.703125 -1 17.296875 -1 
C 22.296875 -1 26.90625 0.390625 31.296875 2.6875 
L 29.703125 8.5625 
C 27.296875 6.46875 24.40625 5.265625 21.296875 5.265625 
C 16.90625 5.265625 16.703125 10.875 16.703125 13.375 
z
" id="CMSS17-116"/>
     </defs>
     <g transform="translate(184.827693 300.598906)scale(0.1 -0.1)">
      <use transform="scale(0.996264)" xlink:href="#CMSSI17-71"/>
      <use transform="translate(62.458226 0)scale(0.996264)" xlink:href="#CMSSI17-114"/>
      <use transform="translate(94.367998 0)scale(0.996264)" xlink:href="#CMSSI17-127"/>
      <use transform="translate(94.367998 0)scale(0.996264)" xlink:href="#CMSSI17-111"/>
      <use transform="translate(141.211622 0)scale(0.996264)" xlink:href="#CMSSI17-25"/>
      <use transform="translate(186.133542 0)scale(0.996264)" xlink:href="#CMSSI17-101"/>
      <use transform="translate(265.734149 0)scale(0.996264)" xlink:href="#CMSS17-47"/>
      <use transform="translate(343.806885 0)scale(0.996264)" xlink:href="#CMSS17-69"/>
      <use transform="translate(399.698898 0)scale(0.996264)" xlink:href="#CMSS17-105"/>
      <use transform="translate(421.879621 0)scale(0.996264)" xlink:href="#CMSS17-110"/>
      <use transform="translate(470.084564 0)scale(0.996264)" xlink:href="#CMSS17-104"/>
      <use transform="translate(518.289508 0)scale(0.996264)" xlink:href="#CMSS17-101"/>
      <use transform="translate(559.92833 0)scale(0.996264)" xlink:href="#CMSS17-105"/>
      <use transform="translate(582.109053 0)scale(0.996264)" xlink:href="#CMSS17-116"/>
     </g>
    </g>
   </g>
   <g id="matplotlib.axis_2">
    <g id="ytick_1">
     <g id="line2d_7">
      <defs>
       <path d="M 0 0 
L 3.5 0 
" id="m47020ccb93" style="stroke:#000000;stroke-width:0.8;"/>
      </defs>
      <g>
       <use style="stroke:#000000;stroke-width:0.8;" x="39.053119" xlink:href="#m47020ccb93" y="276.771249"/>
      </g>
     </g>
     <g id="text_8">
      <!-- $0,0$ -->
      <g transform="translate(21.16264 280.230498)scale(0.1 -0.1)">
       <use transform="scale(0.996264)" xlink:href="#CMR17-48"/>
       <use transform="translate(45.690477 0)scale(0.996264)" xlink:href="#CMMI12-59"/>
       <use transform="translate(89.392059 0)scale(0.996264)" xlink:href="#CMR17-48"/>
      </g>
     </g>
    </g>
    <g id="ytick_2">
     <g id="line2d_8">
      <g>
       <use style="stroke:#000000;stroke-width:0.8;" x="39.053119" xlink:href="#m47020ccb93" y="223.548849"/>
      </g>
     </g>
     <g id="text_9">
      <!-- $0,2$ -->
      <g transform="translate(21.16264 227.008098)scale(0.1 -0.1)">
       <use transform="scale(0.996264)" xlink:href="#CMR17-48"/>
       <use transform="translate(45.690477 0)scale(0.996264)" xlink:href="#CMMI12-59"/>
       <use transform="translate(89.392059 0)scale(0.996264)" xlink:href="#CMR17-50"/>
      </g>
     </g>
    </g>
    <g id="ytick_3">
     <g id="line2d_9">
      <g>
       <use style="stroke:#000000;stroke-width:0.8;" x="39.053119" xlink:href="#m47020ccb93" y="170.326449"/>
      </g>
     </g>
     <g id="text_10">
      <!-- $0,4$ -->
      <g transform="translate(21.16264 173.785698)scale(0.1 -0.1)">
       <use transform="scale(0.996264)" xlink:href="#CMR17-48"/>
       <use transform="translate(45.690477 0)scale(0.996264)" xlink:href="#CMMI12-59"/>
       <use transform="translate(89.392059 0)scale(0.996264)" xlink:href="#CMR17-52"/>
      </g>
     </g>
    </g>
    <g id="ytick_4">
     <g id="line2d_10">
      <g>
       <use style="stroke:#000000;stroke-width:0.8;" x="39.053119" xlink:href="#m47020ccb93" y="117.104049"/>
      </g>
     </g>
     <g id="text_11">
      <!-- $0,6$ -->
      <g transform="translate(21.16264 120.563298)scale(0.1 -0.1)">
       <use transform="scale(0.996264)" xlink:href="#CMR17-48"/>
       <use transform="translate(45.690477 0)scale(0.996264)" xlink:href="#CMMI12-59"/>
       <use transform="translate(89.392059 0)scale(0.996264)" xlink:href="#CMR17-54"/>
      </g>
     </g>
    </g>
    <g id="ytick_5">
     <g id="line2d_11">
      <g>
       <use style="stroke:#000000;stroke-width:0.8;" x="39.053119" xlink:href="#m47020ccb93" y="63.881649"/>
      </g>
     </g>
     <g id="text_12">
      <!-- $0,8$ -->
      <g transform="translate(21.16264 67.340898)scale(0.1 -0.1)">
       <use transform="scale(0.996264)" xlink:href="#CMR17-48"/>
       <use transform="translate(45.690477 0)scale(0.996264)" xlink:href="#CMMI12-59"/>
       <use transform="translate(89.392059 0)scale(0.996264)" xlink:href="#CMR17-56"/>
      </g>
     </g>
    </g>
    <g id="ytick_6">
     <g id="line2d_12">
      <g>
       <use style="stroke:#000000;stroke-width:0.8;" x="39.053119" xlink:href="#m47020ccb93" y="10.659249"/>
      </g>
     </g>
     <g id="text_13">
      <!-- $1,0$ -->
      <g transform="translate(21.16264 14.118498)scale(0.1 -0.1)">
       <use transform="scale(0.996264)" xlink:href="#CMR17-49"/>
       <use transform="translate(45.690477 0)scale(0.996264)" xlink:href="#CMMI12-59"/>
       <use transform="translate(89.392059 0)scale(0.996264)" xlink:href="#CMR17-48"/>
      </g>
     </g>
    </g>
    <g id="text_14">
     <!-- \textit{Größe} / Einheit -->
     <g transform="translate(14.67198 176.500675)rotate(-90)scale(0.1 -0.1)">
      <use transform="scale(0.996264)" xlink:href="#CMSSI17-71"/>
      <use transform="translate(62.458226 0)scale(0.996264)" xlink:href="#CMSSI17-114"/>
      <use transform="translate(94.367998 0)scale(0.996264)" xlink:href="#CMSSI17-127"/>
      <use transform="translate(94.367998 0)scale(0.996264)" xlink:href="#CMSSI17-111"/>
      <use transform="translate(141.211622 0)scale(0.996264)" xlink:href="#CMSSI17-25"/>
      <use transform="translate(186.133542 0)scale(0.996264)" xlink:href="#CMSSI17-101"/>
      <use transform="translate(265.734149 0)scale(0.996264)" xlink:href="#CMSS17-47"/>
      <use transform="translate(343.806885 0)scale(0.996264)" xlink:href="#CMSS17-69"/>
      <use transform="translate(399.698898 0)scale(0.996264)" xlink:href="#CMSS17-105"/>
      <use transform="translate(421.879621 0)scale(0.996264)" xlink:href="#CMSS17-110"/>
      <use transform="translate(470.084564 0)scale(0.996264)" xlink:href="#CMSS17-104"/>
      <use transform="translate(518.289508 0)scale(0.996264)" xlink:href="#CMSS17-101"/>
      <use transform="translate(559.92833 0)scale(0.996264)" xlink:href="#CMSS17-105"/>
      <use transform="translate(582.109053 0)scale(0.996264)" xlink:href="#CMSS17-116"/>
     </g>
    </g>
   </g>
   <g id="patch_3">
    <path d="M 39.053119 276.771249 
L 39.053119 10.659249 
" style="fill:none;stroke:#000000;stroke-linecap:square;stroke-linejoin:miter;stroke-width:0.8;"/>
   </g>
   <g id="patch_4">
    <path d="M 396.173119 276.771249 
L 396.173119 10.659249 
" style="fill:none;stroke:#000000;stroke-linecap:square;stroke-linejoin:miter;stroke-width:0.8;"/>
   </g>
   <g id="patch_5">
    <path d="M 39.053119 276.771249 
L 396.173119 276.771249 
" style="fill:none;stroke:#000000;stroke-linecap:square;stroke-linejoin:miter;stroke-width:0.8;"/>
   </g>
   <g id="patch_6">
    <path d="M 39.053119 10.659249 
L 396.173119 10.659249 
" style="fill:none;stroke:#000000;stroke-linecap:square;stroke-linejoin:miter;stroke-width:0.8;"/>
   </g>
  </g>
 </g>
</svg>
